# xmcd
#
# Track frame offsets:
#	183
#	9165
#	21538
#	39675
#	53778
#	72845
#	83573
#	102663
#	115293
#	134415
#	146300
#	161275
#	177573
#	188955
#	199793
#	212360
#	224210
#	242723
#
# Disc length: 3452 seconds
#
# Revision: 1
# Processed by: cddbd v1.4PL0 Copyright (c) Steve Scherf et al.
# Submitted via: EasyCDDAExtractor 5.0.4.1
#
DISCID=080d7a12
DTITLE=Sean Wilson - Turn Back The Years
DYEAR=1992
DGENRE=Country
TTITLE0=Let's Turn Back The Years
TTITLE1=Back On My Mind Again
TTITLE2=It's Good To See You
TTITLE3=MEDLEY: Whiskey In The Jar - Goodbye Mick and Goodbye Pat - The Golden J
TTITLE3=ubilee - Good Old Mountain Dew
TTITLE4=Home To Donegal
TTITLE5=If I Kiss You, Will You Go Away
TTITLE6=Walking Piece Of Heaven
TTITLE7=MEDLEY: My Bonnie Lies Over The Ocean - Home On The Range - Que Sera S
TTITLE7=era - My Bonnie Lies Over The Ocean
TTITLE8=An Irish Harvest Day
TTITLE9=Through The Eyes Of A Child
TTITLE10=Irish Soldier Boy
TTITLE11=MEDLEY: Cottenfields - Yonder Comes A Sucker - San Quentin - I'm Goin
TTITLE11=g To Be A Country Boy Again
TTITLE12=South Of The Border
TTITLE13=Ring Of Fire
TTITLE14=The Old Country Churchyard
TTITLE15=Old Ireland Is The Only Place For Me
TTITLE16=Working Man
TTITLE17=Forever And Ever Amen
EXTD=Accordian
EXTT0=Accordian
EXTT1=Accordian
EXTT2=Accordian
EXTT3=Accordian
EXTT4=Accordian
EXTT5=Accordian
EXTT6=Accordian
EXTT7=Accordian
EXTT8=Accordian
EXTT9=Accordian
EXTT10=Accordian
EXTT11=Accordian
EXTT12=Accordian
EXTT13=Accordian
EXTT14=Accordian
EXTT15=Accordian
EXTT16=Accordian
EXTT17=Accordian
PLAYORDER=
